Motion_pl02
version=1
nRows=16
nColumns=43
inDegrees=yes
endheader
time	pelvis_tilt	pelvis_list	pelvis_rotation	pelvis_tx	pelvis_ty	pelvis_tz	hip_flexion_r	hip_adduction_r	hip_rotation_r	knee_angle_r	ankle_angle_r	subtalar_angle_r	mtp_angle_r	hip_flexion_l	hip_adduction_l	hip_rotation_l	knee_angle_l	ankle_angle_l	subtalar_angle_l	mtp_angle_l	lumbar_extension	lumbar_bending	lumbar_rotation	neck_flexion	neck_lateral_bending	neck_rotation	arm_flex_r	arm_add_r	arm_rot_r	elbow_flex_r	pro_sup_r	wrist_flex_r	wrist_dev_r	hand_finger_flex_r	arm_flex_l	arm_add_l	arm_rot_l	elbow_flex_l	pro_sup_l	wrist_flex_l	wrist_dev_l	hand_finger_flex_l
      0.00250000	     -0.42715576	     -3.81316226	     89.21908460	      0.07759648	      1.76639807	      1.86959560	     81.05340827	     -5.59534221	      5.77319364	   -149.21134764	     24.36695317	      4.46021782	     17.40751214	     79.27319645	     -7.38142426	     16.30394059	   -148.03853671	     21.04520287	     24.83901657	     27.13820987	    -57.11043837	     -1.05518074	      2.66448412	     34.50937422	      0.11551658	     -4.50714087	     26.75173983	    -22.11632168	    -15.51195623	     84.97016457	    112.37318375	     11.08911124	     -8.36754117	    -28.87766102	     49.17913861	    -23.04589594	      8.33864808	     61.28516598	    116.27377475	    -15.42636777	     -7.18879030	      9.46447144
      0.00500000	     -0.41564071	     -4.05841352	     89.18789777	      0.07778313	      1.76722518	      1.86808905	     80.95030360	     -5.53560994	      5.75195807	   -149.02675422	     24.33269864	      4.51974823	     17.38032672	     79.17071849	     -7.39126516	     16.23432091	   -147.87861185	     21.03316682	     24.87420099	     27.10171893	    -56.92421811	     -1.06866303	      2.69211862	     34.67500262	      0.16640681	     -4.45619003	     27.39702720	    -22.31611307	    -15.25372590	     85.29849518	    112.50282771	     11.24844537	     -8.44774364	    -28.86292941	     49.77530881	    -22.98516872	      8.43427444	     61.43104727	    116.21200294	    -15.41634216	     -7.17298679	      9.47992848
      0.00750000	     -0.26714313	     -4.08525630	     89.11049091	      0.07766468	      1.76838022	      1.86659231	     80.59075501	     -5.46932836	      5.62384931	   -148.85392679	     24.48227326	      4.67061104	     17.28027403	     78.84618703	     -7.46910772	     16.29113111	   -147.78679553	     21.14934161	     24.70332501	     26.93365269	    -56.99318104	     -0.99308789	      2.77454442	     34.90166624	      0.20695658	     -4.29674526	     28.18294856	    -22.64874564	    -14.95267381	     85.65476213	    113.10145060	     11.81522926	     -8.45986305	    -28.99395843	     50.47009575	    -23.18118528	      8.97231928	     61.73752975	    116.05203643	    -15.55063018	     -6.81616175	      9.52983378
      0.01000000	     -0.25074811	     -4.38059924	     89.12892748	      0.07780528	      1.76912601	      1.86507171	     80.54448702	     -5.46756301	      5.55462389	   -148.67770821	     24.47953049	      4.69324575	     17.26181513	     78.80892629	     -7.45430470	     16.22597428	   -147.62901772	     21.15729413	     24.69237994	     26.90775593	    -56.74439316	     -0.97158040	      2.78632247	     35.03398758	      0.26234819	     -4.31750686	     28.86867605	    -22.78723189	    -14.73722284	     85.94340201	    113.17743766	     11.94075173	     -8.51228463	    -29.00716133	     51.09662311	    -23.03761695	      8.99507750	     61.82089817	    116.04756603	    -15.58828229	     -6.73523114	      9.52585579
      0.01250000	     -0.06375733	     -4.56184888	     89.16092637	      0.07748615	      1.76995835	      1.86356748	     80.34959870	     -5.48329308	      5.34528191	   -148.51095640	     24.59257621	      4.70222130	     17.17970822	     78.69524041	     -7.45034187	     16.30463743	   -147.55483541	     21.31290941	     24.36596557	     26.78389391	    -56.62818168	     -0.78049951	      2.88740782	     35.21032296	      0.27581809	     -4.27886953	     29.64172421	    -23.18113869	    -14.39588591	     86.30722019	    113.53052890	     12.38250360	     -8.47610576	    -29.19815882	     51.79404989	    -23.10093618	      9.43184698	     62.08750548	    116.18898435	    -15.72981456	     -6.24760060	      9.56398199
      0.01500000	     -0.01060468	     -4.84627734	     89.17358636	      0.07741065	      1.77073440	      1.86202784	     80.30341572	     -5.48547374	      5.25628068	   -148.35099501	     24.58987582	      4.70785432	     17.14983716	     78.66316292	     -7.47323516	     16.25704169	   -147.42884212	     21.34621021	     24.30730520	     26.74478481	    -56.39906011	     -0.72071094	      2.90622900	     35.42964214	      0.32362433	     -4.27484877	     30.42288855	    -23.37926544	    -14.13815118	     86.58463607	    113.61967709	     12.52742107	     -8.50006652	    -29.24672466	     52.48031718	    -22.95522751	      9.49986302	     62.17530062	    116.23714481	    -15.75193470	     -6.09063549	      9.57625443
      0.01750000	      0.08019585	     -5.12456918	     89.20133641	      0.07727505	      1.77156768	      1.86045754	     80.22876749	     -5.48563223	      5.14250131	   -148.16583928	     24.60522714	      4.71120481	     17.12430905	     78.60987110	     -7.50223587	     16.22705423	   -147.28831843	     21.43754949	     24.18600479	     26.71413341	    -56.17961532	     -0.61575798	      2.95679997	     35.59925881	      0.35235457	     -4.24915904	     31.20550577	    -23.66572710	    -13.81393047	     86.92369986	    113.71200896	     12.67199303	     -8.51431704	    -29.27226260	     53.16285953	    -22.88241603	      9.65865700	     62.33770674	    116.34094364	    -15.72025224	     -5.91473858	      9.60292777
      0.02000000	      0.19063071	     -5.39350246	     89.24353184	      0.07708627	      1.77244683	      1.85885273	     80.12807967	     -5.48718701	      5.00304229	   -147.97504426	     24.61832920	      4.71173940	     17.09986100	     78.54590309	     -7.53857926	     16.21044899	   -147.15005770	     21.54898907	     24.02593346	     26.68596624	    -55.96982670	     -0.47976045	      3.01452784	     35.76991232	      0.37056501	     -4.20913943	     32.02139191	    -23.94878578	    -13.48074330	     87.26880942	    113.79883340	     12.78171723	     -8.50674904	    -29.28399095	     53.84856158	    -22.80923032	      9.81461417	     62.51497465	    116.46841425	    -15.66905216	     -5.71014311	      9.62844657
      0.02250000	      0.31996154	     -5.64666676	     89.29937611	      0.07686211	      1.77335433	      1.85720853	     79.99667545	     -5.48862303	      4.84467466	   -147.78250299	     24.62709362	      4.70548941	     17.07490909	     78.47083853	     -7.57295750	     16.20397121	   -147.02174117	     21.66930581	     23.83864138	     26.65697397	    -55.77705766	     -0.32218014	      3.07760433	     35.93231428	      0.38590388	     -4.15610116	     32.86420570	    -24.23638116	    -13.13311693	     87.62814988	    113.88194359	     12.85926311	     -8.48054450	    -29.27702726	     54.52525321	    -22.73374543	      9.94645939	     62.72019926	    116.61987864	    -15.60360788	     -5.49011421	      9.64875967
      0.02500000	      0.61139374	     -5.77766423	     89.42421471	      0.07649732	      1.77457839	      1.85547548	     79.63107776	     -5.48947220	      4.48051385	   -147.53637401	     24.65694800	      4.62993095	     17.00827696	     78.26819714	     -7.59939870	     16.33938224	   -146.90605328	     21.86107204	     23.36808266	     26.55829366	    -55.73399777	      0.01966086	      3.20055145	     36.03448663	      0.34268448	     -3.98935369	     33.79677425	    -24.56089593	    -12.66596170	     88.05785215	    114.01472453	     12.84015437	     -8.29026500	    -29.26150397	     55.11830639	    -22.75647260	     10.03843495	     63.15572742	    117.01420631	    -15.48361708	     -4.96740381	      9.66041826
      0.02750000	      0.66345687	     -6.08484277	     89.45052626	      0.07631134	      1.77546987	      1.85378319	     79.58291116	     -5.49887728	      4.40356318	   -147.34354250	     24.63889425	      4.62651489	     16.99070210	     78.22715740	     -7.64022002	     16.26845137	   -146.73800758	     21.88689032	     23.34776198	     26.53615084	    -55.47675455	      0.09936347	      3.21248809	     36.23032463	      0.41342252	     -3.97915562	     34.66951190	    -24.74896709	    -12.37326426	     88.36388185	    114.04547319	     12.88423264	     -8.31459526	    -29.20715462	     55.79631588	    -22.57510055	     10.02647390	     63.26480426	    117.10950330	    -15.42821346	     -4.89226575	      9.64949085
      0.03000000	      0.75659886	     -6.36325524	     89.48301573	      0.07606618	      1.77634555	      1.85206421	     79.49432194	     -5.49611764	      4.30883662	   -147.15759391	     24.63482067	      4.62254009	     16.97384312	     78.15321075	     -7.66969231	     16.24229924	   -146.59720220	     21.98642704	     23.25610269	     26.51968263	    -55.24949299	      0.21819722	      3.24941471	     36.41495276	      0.46860687	     -3.93358159	     35.58427960	    -25.06991490	    -11.95728634	     88.70797099	    114.10902420	     12.94913976	     -8.30796876	    -29.11240948	     56.47149085	    -22.48395943	     10.10839969	     63.43662171	    117.29854902	    -15.30231221	     -4.81634887	      9.64435842
      0.03250000	      1.01737956	     -6.49297710	     89.57295675	      0.07577267	      1.77756458	      1.85025093	     79.13934142	     -5.46638550	      3.98864077	   -146.91152889	     24.65711143	      4.56835293	     16.92443674	     77.92600188	     -7.70371477	     16.36826266	   -146.46435309	     22.17206744	     22.89542339	     26.44750652	    -55.18953372	      0.51729161	      3.31453816	     36.47243818	      0.44816914	     -3.70985245	     36.64207646	    -25.36802334	    -11.35138615	     89.07838369	    114.22573559	     12.84392791	     -8.08524072	    -28.87243159	     57.03330844	    -22.55857750	     10.10287165	     63.85042692	    117.94856519	    -14.99131345	     -4.57447277	      9.55260243
      0.03500000	      1.05863022	     -6.81120147	     89.58251854	      0.07564323	      1.77838848	      1.84851726	     79.11316328	     -5.44644538	      3.93022319	   -146.73169594	     24.64479427	      4.55495193	     16.90957269	     77.89634728	     -7.71871490	     16.31325231	   -146.30560447	     22.18457990	     22.88587948	     26.42903734	    -54.90869040	      0.57095079	      3.32140195	     36.69048446	      0.55241086	     -3.69740181	     37.58971732	    -25.56523395	    -11.01318433	     89.36883032	    114.26117352	     12.88066454	     -8.10520030	    -28.76603724	     57.73414992	    -22.37358073	     10.09495277	     63.93538530	    118.11273358	    -14.88638088	     -4.53343019	      9.50893370
      0.03750000	      1.12781564	     -7.11790479	     89.58390694	      0.07551698	      1.77921351	      1.84676184	     79.06225992	     -5.39658433	      3.84971142	   -146.54099190	     24.64052524	      4.53497912	     16.89481582	     77.84233920	     -7.73724843	     16.28309816	   -146.14555534	     22.25379139	     22.81178429	     26.41797263	    -54.63690746	      0.64479049	      3.34477928	     36.82768591	      0.63587535	     -3.64737668	     38.56978135	    -25.84588821	    -10.56733402	     89.69461856	    114.32684325	     12.94254412	     -8.09092491	    -28.63423759	     58.43771276	    -22.32328239	     10.22739829	     64.08897493	    118.38590647	    -14.70546977	     -4.52116773	      9.47039159
      0.04000000	      1.28055854	     -7.35268043	     89.58359619	      0.07547376	      1.78011362	      1.84492835	     78.89530943	     -5.29155423	      3.65947218	   -146.33100230	     24.64234335	      4.42776712	     16.85581903	     77.71617023	     -7.78783576	     16.32480422	   -145.99294991	     22.35079375	     22.56164351	     26.38508998	    -54.42007333	      0.78700474	      3.36742181	     36.78937729	      0.68014731	     -3.45219048	     39.64140638	    -26.05991487	     -9.97971061	     90.00864508	    114.43219639	     12.88693549	     -7.91445229	    -28.39429245	     59.06364942	    -22.45425639	     10.36900991	     64.39333532	    119.05818227	    -14.36763770	     -4.47999507	      9.31005349
